<svg xmlns="http://www.w3.org/2000/svg" viewBox="0 0 683.24 268.08"><defs><style>.cls-1{fill:#8dc642;}.cls-2{fill:#00486a;}.cls-3{fill:none;}</style></defs><g id="Layer_2" data-name="Layer 2"><g id="Layer_1-2" data-name="Layer 1"><path class="cls-1" d="M27.73,133.91A105.37,105.37,0,1,0,133.11,28.54,105.37,105.37,0,0,0,27.73,133.91m-27.12.15A132.7,132.7,0,1,1,133.3,266.76,132.7,132.7,0,0,1,.61,134.06"/><path class="cls-2" d="M153,200.5a13.31,13.31,0,0,0,0-26.62l-3.77,0H133.32c-22,0-39.56-18.28-39.56-40.32a39.93,39.93,0,0,1,76.52-16l.29.68a1.74,1.74,0,0,1,.14.69,1.71,1.71,0,0,1-1.71,1.71l-.21,0h-36a13.25,13.25,0,0,0-13.22,12.41c0,.29,0,.57,0,.85s0,.68.06,1a13.23,13.23,0,0,0,13.19,12.25h52.56a15,15,0,0,0,14.22-14.43c0-.7,0-1.41-.05-2.1a66.25,66.25,0,0,0-132.43,3.19c0,36.59,29.68,66.72,66.26,66.72h16.06Z"/><path class="cls-1" d="M504.94,88.67a39.47,39.47,0,0,0-28.36,12.06l-.49-.52a39.37,39.37,0,0,0-67.22,27.84v41.82a10.18,10.18,0,0,0,3.21,7.55,10.76,10.76,0,0,0,7.75,3.09,11,11,0,0,0,7.92-3.09,10.18,10.18,0,0,0,3.21-7.55V130.81c0-6.16,1.65-11.1,4.9-14.7s7.48-5.38,12.89-5.38,9.45,1.65,12.39,5,4.41,8.29,4.41,14.55v39.55a10.15,10.15,0,0,0,3.21,7.55,11,11,0,0,0,7.92,3.09,10.81,10.81,0,0,0,7.75-3.09,10.21,10.21,0,0,0,3.2-7.55V130.81c0-6.36,1.65-11.36,4.89-14.85s7.57-5.23,12.91-5.23,9.5,1.67,12.39,5,4.41,8.31,4.41,14.78v39.39a10.17,10.17,0,0,0,3.21,7.55,11,11,0,0,0,7.92,3.09,10.81,10.81,0,0,0,7.75-3.09,10.17,10.17,0,0,0,3.2-7.55V128.05A39.42,39.42,0,0,0,504.94,88.67ZM398.86,132a45.72,45.72,0,1,0-45.65,48.23h10.85l2.44,0a10,10,0,0,0,0-19.95H353.2c-14.19,0-25.73-11.77-25.73-26.24a26,26,0,0,1,49.77-10.38l.21.53a.18.18,0,0,1-.14.17l-24.48,0a10,10,0,0,0-9.91,9.32v.15c0,.16,0,.32,0,.48s0,.51,0,.75a10,10,0,0,0,9.92,9.19h35.51a11.08,11.08,0,0,0,10.54-10.76v-.32C398.88,132.74,398.88,132.36,398.86,132Zm247.35,0a45.72,45.72,0,1,0-45.65,48.23h10.85l2.44,0a10,10,0,0,0,0-19.95h-13.3c-14.19,0-25.73-11.77-25.73-26.24a26,26,0,0,1,49.77-10.38l.21.53a.18.18,0,0,1-.14.17l-24.48,0a10,10,0,0,0-9.91,9.32v.12c0,.17,0,.34,0,.51s0,.51,0,.75a10,10,0,0,0,9.91,9.19h35.52a11.08,11.08,0,0,0,10.54-10.76V133C646.23,132.67,646.23,132.33,646.21,132Zm35.71-69.3a11.85,11.85,0,0,0-11.85-11.84h0a11.86,11.86,0,0,0-11.83,11.87L658.35,169a11.85,11.85,0,0,0,11.85,11.84h0A11.85,11.85,0,0,0,682.05,169Z"/><rect class="cls-3" width="683.24" height="268.08"/></g></g></svg>